<svg width="48" height="48" viewBox="0 0 48 48" fill="none" xmlns="http://www.w3.org/2000/svg">
<g clip-path="url(#clip0_113_2768)">
<path d="M36.75 0H11.25C5.0368 0 0 5.0368 0 11.25V36.75C0 42.9632 5.0368 48 11.25 48H36.75C42.9632 48 48 42.9632 48 36.75V11.25C48 5.0368 42.9632 0 36.75 0Z" fill="#F4F2ED"/>
<path d="M7.80675 38.0698H13.7726V23.5811L5.25 17.1892V35.513C5.25 36.9277 6.39638 38.0698 7.80675 38.0698Z" fill="#4285F4"/>
<path d="M34.2272 38.0698H40.1933C41.6079 38.0698 42.75 36.9235 42.75 35.5131V17.1891L34.2272 23.5811" fill="#34A853"/>
<path d="M34.2272 12.5016V23.5811L42.75 17.1893V13.7798C42.75 10.618 39.1406 8.81533 36.6137 10.7117" fill="#FBBC04"/>
<path d="M13.7728 23.5811V12.5017L24 20.1718L34.2272 12.5013V23.5809L24 31.2515" fill="#EA4335"/>
<path d="M5.25 13.7799V17.189L13.7726 23.5811V12.5017L11.3863 10.7118C8.85506 8.81546 5.25 10.6181 5.25 13.7799Z" fill="#C5221F"/>
</g>
<defs>
<clipPath id="clip0_113_2768">
<rect width="48" height="48" fill="white"/>
</clipPath>
</defs>
</svg>
