<svg width="52" height="52" viewBox="0 0 52 52" fill="none" xmlns="http://www.w3.org/2000/svg">
<circle cx="26" cy="26" r="26" fill="white"/>
<path d="M14.208 13.5799C15.376 14.5279 15.812 14.4559 18.004 14.3099L38.668 13.0699C39.108 13.0699 38.742 12.6299 38.596 12.5579L35.164 10.0779C34.506 9.56787 33.63 8.98187 31.952 9.12787L11.942 10.5879C11.214 10.6599 11.068 11.0259 11.358 11.3179L14.208 13.5799ZM15.448 18.3959V40.1359C15.448 41.3059 16.032 41.7419 17.348 41.6699L40.056 40.3559C41.37 40.2839 41.516 39.4799 41.516 38.5299V16.9359C41.516 15.9879 41.152 15.4759 40.348 15.5499L16.616 16.9359C15.74 17.0079 15.448 17.4459 15.448 18.3959ZM37.868 19.5619C38.012 20.2179 37.868 20.8759 37.208 20.9499L36.114 21.1679V37.2179C35.164 37.7299 34.288 38.0199 33.558 38.0199C32.39 38.0199 32.098 37.6559 31.222 36.5619L24.064 25.3259V36.1979L26.33 36.7079C26.33 36.7079 26.33 38.0199 24.502 38.0199L19.464 38.3119C19.318 38.0199 19.464 37.2919 19.976 37.1459L21.29 36.7819V22.4079L19.464 22.2619C19.318 21.6039 19.684 20.6559 20.706 20.5819L26.11 20.2179L33.558 31.6019V21.5319L31.658 21.3139C31.514 20.5099 32.098 19.9279 32.828 19.8539L37.868 19.5619ZM10.262 8.61787L31.074 7.08587C33.628 6.86587 34.286 7.01387 35.894 8.17987L42.536 12.8499C43.632 13.6519 43.998 13.8699 43.998 14.7459V40.3559C43.998 41.9619 43.414 42.9099 41.37 43.0559L17.2 44.5159C15.666 44.5879 14.936 44.3699 14.132 43.3479L9.24 36.9999C8.364 35.8319 8 34.9579 8 33.9339V11.1699C8 9.85787 8.582 8.76387 10.262 8.61787Z" fill="black"/>
</svg>
