<svg width="107" height="47" viewBox="0 0 107 47" fill="none" xmlns="http://www.w3.org/2000/svg">
<path d="M0.3125 26.0398V20.0398L24.3125 9.47159V16.375L7.88068 22.9716L8.10227 22.6136V23.4659L7.88068 23.108L24.3125 29.7045V36.608L0.3125 26.0398ZM46.7273 0.454543L35.4773 42.25H29.2216L40.4716 0.454543H46.7273ZM50.2259 46.8182V10.8182H57.3849V15.2159H57.7088C58.027 14.5114 58.4872 13.7955 59.0895 13.0682C59.7031 12.3295 60.4986 11.7159 61.4759 11.2273C62.4645 10.7273 63.6918 10.4773 65.1577 10.4773C67.0668 10.4773 68.8281 10.9773 70.4418 11.9773C72.0554 12.9659 73.3452 14.4602 74.3111 16.4602C75.277 18.4489 75.7599 20.9432 75.7599 23.9432C75.7599 26.8636 75.2884 29.3295 74.3452 31.3409C73.4134 33.3409 72.1406 34.858 70.527 35.892C68.9247 36.9148 67.1293 37.4261 65.1406 37.4261C63.7315 37.4261 62.5327 37.1932 61.544 36.7273C60.5668 36.2614 59.7656 35.6761 59.1406 34.9716C58.5156 34.2557 58.0384 33.5341 57.7088 32.8068H57.4872V46.8182H50.2259ZM57.3338 23.9091C57.3338 25.4659 57.5497 26.8239 57.9815 27.983C58.4134 29.142 59.0384 30.0455 59.8565 30.6932C60.6747 31.3295 61.669 31.6477 62.8395 31.6477C64.0213 31.6477 65.0213 31.3239 65.8395 30.6761C66.6577 30.017 67.277 29.108 67.6974 27.9489C68.1293 26.7784 68.3452 25.4318 68.3452 23.9091C68.3452 22.3977 68.1349 21.0682 67.7145 19.9205C67.294 18.7727 66.6747 17.875 65.8565 17.2273C65.0384 16.5795 64.0327 16.2557 62.8395 16.2557C61.6577 16.2557 60.6577 16.5682 59.8395 17.1932C59.0327 17.8182 58.4134 18.7045 57.9815 19.8523C57.5497 21 57.3338 22.3523 57.3338 23.9091ZM106.016 26.0398L82.0156 36.608V29.7045L98.4474 23.108L98.2259 23.4659V22.6136L98.4474 22.9716L82.0156 16.375V9.47159L106.016 20.0398V26.0398Z" fill="#F2E85E"/>
</svg>
